<svg xmlns="http://www.w3.org/2000/svg"  viewBox="0 0 50 50" width="100px" height="100px"><path d="M 25 3.0449219 C 12.886152 3.0449219 3.0449219 12.886152 3.0449219 25 C 3.0449219 37.113848 12.886152 46.955078 25 46.955078 C 37.113848 46.955078 46.955078 37.113848 46.955078 25 C 46.955078 12.886152 37.113848 3.0449219 25 3.0449219 z M 25 4.9550781 C 36.082152 4.9550781 45.044922 13.917848 45.044922 25 C 45.044922 36.082152 36.082152 45.044922 25 45.044922 C 13.917848 45.044922 4.9550781 36.082152 4.9550781 25 C 4.9550781 13.917848 13.917848 4.9550781 25 4.9550781 z M 25 11 C 17.27961 11 11 17.27961 11 25 C 11 32.72039 17.27961 39 25 39 C 32.72039 39 39 32.72039 39 25 C 39 17.27961 32.72039 11 25 11 z M 25 13 C 31.63961 13 37 18.36039 37 25 C 37 31.63961 31.63961 37 25 37 C 18.36039 37 13 31.63961 13 25 C 13 18.36039 18.36039 13 25 13 z M 21.033203 17.5 A 1.0001 1.0001 0 0 0 20 18.5 L 20 31.5 A 1.0001 1.0001 0 0 0 21.507812 32.361328 L 32.507812 25.861328 A 1.0001 1.0001 0 0 0 32.507812 24.138672 L 21.507812 17.638672 A 1.0001 1.0001 0 0 0 21.033203 17.5 z M 22 20.251953 L 30.035156 25 L 22 29.748047 L 22 20.251953 z"/></svg>