<svg xmlns="http://www.w3.org/2000/svg" xmlns:xlink="http://www.w3.org/1999/xlink" version="1.1" width="256" height="256" viewBox="0 0 256 256" xml:space="preserve">

<defs>
</defs>
<g style="stroke: none; stroke-width: 0; stroke-dasharray: none; stroke-linecap: butt; stroke-linejoin: miter; stroke-miterlimit: 10; fill: none; fill-rule: nonzero; opacity: 1;" transform="translate(1.4065934065934016 1.4065934065934016) scale(2.81 2.81)" >
	<path d="M 86.839 27.189 c -0.851 -3.184 -3.359 -5.691 -6.542 -6.542 C 74.526 19.1 51.385 19.1 51.385 19.1 s -23.141 0 -28.911 1.547 c -3.184 0.851 -5.691 3.359 -6.542 6.542 C 14.385 32.959 14.385 45 14.385 45 s 0 12.041 1.547 17.811 c 0.851 3.184 3.359 5.691 6.542 6.542 C 28.245 70.9 51.385 70.9 51.385 70.9 s 23.141 0 28.911 -1.547 c 3.184 -0.851 5.691 -3.359 6.542 -6.542 C 88.385 57.041 88.385 45 88.385 45 S 88.385 32.959 86.839 27.189 z" style="stroke: none; stroke-width: 1; stroke-dasharray: none; stroke-linecap: butt; stroke-linejoin: miter; stroke-miterlimit: 10; fill: rgb(255,0,0); fill-rule: nonzero; opacity: 1;" transform=" matrix(1 0 0 1 0 0) " stroke-linecap="round" />
	<polygon points="44.13,56.22 63.55,45 44.13,33.78 " style="stroke: none; stroke-width: 1; stroke-dasharray: none; stroke-linecap: butt; stroke-linejoin: miter; stroke-miterlimit: 10; fill: rgb(255,255,255); fill-rule: nonzero; opacity: 1;" transform="  matrix(1 0 0 1 0 0) "/>
	<path d="M 51.604 72.178 c -0.96 0 -23.587 -0.019 -29.479 -1.598 c -3.563 -0.952 -6.368 -3.757 -7.32 -7.319 c -0.143 -0.534 0.174 -1.082 0.708 -1.225 c 0.534 -0.145 1.082 0.175 1.225 0.707 c 0.768 2.874 3.031 5.137 5.905 5.905 c 5.64 1.512 28.729 1.529 28.962 1.529 s 23.323 -0.018 28.962 -1.529 c 2.875 -0.769 5.138 -3.031 5.905 -5.904 C 87.982 57.104 88 45.121 88 45 s -0.019 -12.105 -1.529 -17.743 c -0.768 -2.875 -3.03 -5.137 -5.904 -5.905 c -5.64 -1.512 -28.73 -1.529 -28.963 -1.529 s -23.322 0.018 -28.961 1.529 c -2.875 0.769 -5.137 3.031 -5.905 5.905 c -0.143 0.533 -0.691 0.849 -1.225 0.708 c -0.534 -0.143 -0.851 -0.691 -0.708 -1.225 c 0.952 -3.563 3.757 -6.368 7.32 -7.32 c 5.891 -1.579 28.519 -1.597 29.479 -1.597 s 23.588 0.018 29.479 1.597 c 3.563 0.953 6.368 3.758 7.319 7.321 C 89.981 32.631 90 44.498 90 45 s -0.019 12.369 -1.598 18.261 c -0.951 3.562 -3.756 6.367 -7.32 7.319 C 75.191 72.159 52.563 72.178 51.604 72.178 z" style="stroke: none; stroke-width: 1; stroke-dasharray: none; stroke-linecap: butt; stroke-linejoin: miter; stroke-miterlimit: 10; fill: rgb(0,0,0); fill-rule: nonzero; opacity: 1;" transform=" matrix(1 0 0 1 0 0) " stroke-linecap="round" />
	<path d="M 44.125 57.219 c -0.173 0 -0.345 -0.045 -0.5 -0.134 c -0.31 -0.179 -0.5 -0.509 -0.5 -0.866 V 33.781 c 0 -0.357 0.19 -0.688 0.5 -0.866 s 0.69 -0.179 1 0 l 19.429 11.219 c 0.31 0.179 0.5 0.509 0.5 0.866 s -0.19 0.688 -0.5 0.866 L 44.625 57.085 C 44.47 57.174 44.297 57.219 44.125 57.219 z M 45.125 35.513 v 18.973 L 61.554 45 L 45.125 35.513 z" style="stroke: none; stroke-width: 1; stroke-dasharray: none; stroke-linecap: butt; stroke-linejoin: miter; stroke-miterlimit: 10; fill: rgb(0,0,0); fill-rule: nonzero; opacity: 1;" transform=" matrix(1 0 0 1 0 0) " stroke-linecap="round" />
	<path d="M 36.452 46 H 1 c -0.552 0 -1 -0.448 -1 -1 s 0.448 -1 1 -1 h 35.452 c 0.552 0 1 0.448 1 1 S 37.004 46 36.452 46 z" style="stroke: none; stroke-width: 1; stroke-dasharray: none; stroke-linecap: butt; stroke-linejoin: miter; stroke-miterlimit: 10; fill: rgb(0,0,0); fill-rule: nonzero; opacity: 1;" transform=" matrix(1 0 0 1 0 0) " stroke-linecap="round" />
	<path d="M 36.452 37.69 H 9.31 c -0.552 0 -1 -0.448 -1 -1 s 0.448 -1 1 -1 h 27.142 c 0.552 0 1 0.448 1 1 S 37.004 37.69 36.452 37.69 z" style="stroke: none; stroke-width: 1; stroke-dasharray: none; stroke-linecap: butt; stroke-linejoin: miter; stroke-miterlimit: 10; fill: rgb(0,0,0); fill-rule: nonzero; opacity: 1;" transform=" matrix(1 0 0 1 0 0) " stroke-linecap="round" />
	<path d="M 36.452 54.311 H 9.31 c -0.552 0 -1 -0.447 -1 -1 s 0.448 -1 1 -1 h 27.142 c 0.552 0 1 0.447 1 1 S 37.004 54.311 36.452 54.311 z" style="stroke: none; stroke-width: 1; stroke-dasharray: none; stroke-linecap: butt; stroke-linejoin: miter; stroke-miterlimit: 10; fill: rgb(0,0,0); fill-rule: nonzero; opacity: 1;" transform=" matrix(1 0 0 1 0 0) " stroke-linecap="round" />
</g>
</svg>