<svg xmlns="http://www.w3.org/2000/svg" xmlns:xlink="http://www.w3.org/1999/xlink" version="1.1" width="256" height="256" viewBox="0 0 256 256" xml:space="preserve">

<defs>
</defs>
<g style="stroke: none; stroke-width: 0; stroke-dasharray: none; stroke-linecap: butt; stroke-linejoin: miter; stroke-miterlimit: 10; fill: none; fill-rule: nonzero; opacity: 1;" transform="translate(1.4065934065934016 1.4065934065934016) scale(2.81 2.81)" >
	<path d="M 65.145 78.468 H 5.998 C 3.238 78.468 1 76.231 1 73.47 V 35.387 c 0 -2.76 2.238 -4.998 4.998 -4.998 h 59.147 c 2.76 0 4.998 2.238 4.998 4.998 V 73.47 C 70.143 76.231 67.905 78.468 65.145 78.468 z" style="stroke: none; stroke-width: 1; stroke-dasharray: none; stroke-linecap: butt; stroke-linejoin: miter; stroke-miterlimit: 10; fill: rgb(255,0,0); fill-rule: nonzero; opacity: 1;" transform=" matrix(1 0 0 1 0 0) " stroke-linecap="round" />
	<path d="M 74.145 69.468 H 14.998 c -2.76 0 -4.998 -2.238 -4.998 -4.998 V 26.387 c 0 -2.76 2.238 -4.998 4.998 -4.998 h 59.147 c 2.76 0 4.998 2.238 4.998 4.998 V 64.47 C 79.143 67.231 76.905 69.468 74.145 69.468 z" style="stroke: none; stroke-width: 1; stroke-dasharray: none; stroke-linecap: butt; stroke-linejoin: miter; stroke-miterlimit: 10; fill: rgb(255,0,0); fill-rule: nonzero; opacity: 1;" transform=" matrix(1 0 0 1 0 0) " stroke-linecap="round" />
	<path d="M 83.145 60.468 H 23.998 c -2.76 0 -4.998 -2.238 -4.998 -4.998 V 17.387 c 0 -2.76 2.238 -4.998 4.998 -4.998 h 59.147 c 2.76 0 4.998 2.238 4.998 4.998 V 55.47 C 88.143 58.231 85.905 60.468 83.145 60.468 z" style="stroke: none; stroke-width: 1; stroke-dasharray: none; stroke-linecap: butt; stroke-linejoin: miter; stroke-miterlimit: 10; fill: rgb(255,0,0); fill-rule: nonzero; opacity: 1;" transform=" matrix(1 0 0 1 0 0) " stroke-linecap="round" />
	<path d="M 29.794 63.513 l 14.169 -8.182 c 0.695 -0.401 0.695 -1.404 0 -1.805 l -14.169 -8.182 c -0.695 -0.401 -1.563 0.1 -1.563 0.903 V 62.61 C 28.23 63.412 29.099 63.914 29.794 63.513 z" style="stroke: none; stroke-width: 1; stroke-dasharray: none; stroke-linecap: butt; stroke-linejoin: miter; stroke-miterlimit: 10; fill: rgb(255,255,255); fill-rule: nonzero; opacity: 1;" transform=" matrix(1 0 0 1 0 0) " stroke-linecap="round" />
	<path d="M 29.273 64.655 c -0.351 0 -0.701 -0.092 -1.021 -0.276 c -0.64 -0.369 -1.021 -1.03 -1.021 -1.769 V 46.247 c 0 -0.738 0.382 -1.399 1.021 -1.769 c 0.64 -0.369 1.403 -0.37 2.042 0 l 14.169 8.182 c 0.639 0.368 1.021 1.029 1.021 1.768 s -0.381 1.399 -1.021 1.77 l -14.169 8.182 C 29.975 64.563 29.624 64.655 29.273 64.655 z M 29.294 46.21 l -0.063 16.4 l 0.063 0.036 l 14.169 -8.182 L 29.294 46.21 z" style="stroke: none; stroke-width: 1; stroke-dasharray: none; stroke-linecap: butt; stroke-linejoin: miter; stroke-miterlimit: 10; fill: rgb(0,0,0); fill-rule: nonzero; opacity: 1;" transform=" matrix(1 0 0 1 0 0) " stroke-linecap="round" />
	<path d="M 65.145 79.469 H 5.998 C 2.691 79.469 0 76.778 0 73.471 V 35.387 c 0 -3.307 2.691 -5.998 5.998 -5.998 h 59.146 c 3.308 0 5.998 2.691 5.998 5.998 v 38.084 C 71.143 76.778 68.452 79.469 65.145 79.469 z M 5.998 31.389 C 3.793 31.389 2 33.182 2 35.387 v 38.084 c 0 2.204 1.793 3.998 3.998 3.998 h 59.146 c 2.204 0 3.998 -1.794 3.998 -3.998 V 35.387 c 0 -2.205 -1.794 -3.998 -3.998 -3.998 H 5.998 z" style="stroke: none; stroke-width: 1; stroke-dasharray: none; stroke-linecap: butt; stroke-linejoin: miter; stroke-miterlimit: 10; fill: rgb(0,0,0); fill-rule: nonzero; opacity: 1;" transform=" matrix(1 0 0 1 0 0) " stroke-linecap="round" />
	<path d="M 74.573 70.04 c -0.553 0 -1 -0.447 -1 -1 s 0.447 -1 1 -1 c 2.204 0 3.998 -1.794 3.998 -3.998 V 25.958 c 0 -2.205 -1.794 -3.998 -3.998 -3.998 H 15.427 c -2.205 0 -3.998 1.793 -3.998 3.998 c 0 0.552 -0.448 1 -1 1 s -1 -0.448 -1 -1 c 0 -3.307 2.691 -5.998 5.998 -5.998 h 59.146 c 3.308 0 5.998 2.691 5.998 5.998 v 38.083 C 80.571 67.35 77.881 70.04 74.573 70.04 z" style="stroke: none; stroke-width: 1; stroke-dasharray: none; stroke-linecap: butt; stroke-linejoin: miter; stroke-miterlimit: 10; fill: rgb(0,0,0); fill-rule: nonzero; opacity: 1;" transform=" matrix(1 0 0 1 0 0) " stroke-linecap="round" />
	<path d="M 84.002 60.611 c -0.553 0 -1 -0.447 -1 -1 s 0.447 -1 1 -1 c 2.204 0 3.998 -1.794 3.998 -3.998 V 16.53 c 0 -2.205 -1.794 -3.998 -3.998 -3.998 H 24.855 c -2.205 0 -3.999 1.793 -3.999 3.998 c 0 0.552 -0.448 1 -1 1 s -1 -0.448 -1 -1 c 0 -3.307 2.691 -5.998 5.999 -5.998 h 59.146 c 3.308 0 5.998 2.691 5.998 5.998 v 38.083 C 90 57.921 87.31 60.611 84.002 60.611 z" style="stroke: none; stroke-width: 1; stroke-dasharray: none; stroke-linecap: butt; stroke-linejoin: miter; stroke-miterlimit: 10; fill: rgb(0,0,0); fill-rule: nonzero; opacity: 1;" transform=" matrix(1 0 0 1 0 0) " stroke-linecap="round" />
</g>
</svg>