<svg data-v-423bf9ae="" xmlns="http://www.w3.org/2000/svg" viewBox="0 0 327.0982538027309 60" class="font"><!----><!----><!----><g data-v-423bf9ae="" id="beb9ea69-92aa-4898-9add-e574d287d33b" fill="white" transform="matrix(4.569687698175228,0,0,4.569687698175228,-3.701445832605202,-11.058645055060708)"><path d="M8.33 12.67L0.81 12.67L0.81 2.43L8.35 2.42L8.35 4.33L2.86 4.33L2.86 6.52L6.97 6.52L6.97 8.43L2.86 8.43L2.86 10.76L8.33 10.76L8.33 12.67ZM9.66 12.67L12.09 9.11L9.88 5.85L11.82 5.85L13.07 7.68L14.32 5.85L16.26 5.85L14.05 9.11L16.48 12.67L14.52 12.67L13.07 10.54L11.62 12.67L9.66 12.67ZM19.63 15.55L17.72 15.54L17.72 6.04L19.63 5.83L19.63 6.38L19.63 6.38Q20.40 5.83 21.14 5.83L21.14 5.83L21.14 5.83Q22.71 5.83 23.63 6.86L23.63 6.86L23.63 6.86Q24.55 7.88 24.55 9.25L24.55 9.25L24.55 9.25Q24.55 10.62 23.63 11.64L23.63 11.64L23.63 11.64Q22.71 12.67 21.14 12.67L21.14 12.67L21.14 12.67Q20.11 12.60 19.63 12.11L19.63 12.11L19.63 15.55ZM19.63 8.63L19.63 8.63L19.63 9.74L19.63 9.74Q19.77 10.89 21.07 11.09L21.07 11.09L21.07 11.09Q22.71 10.96 22.91 9.39L22.91 9.39L22.91 9.39Q22.85 7.47 21.07 7.40L21.07 7.40L21.07 7.40Q19.77 7.61 19.63 8.63ZM27.84 12.67L25.92 12.67L25.92 2.42L27.84 2.42L27.84 12.67ZM32.93 12.74L32.93 12.74Q31.44 12.74 30.44 11.74L30.44 11.74L30.44 11.74Q29.44 10.74 29.44 9.26L29.44 9.26L29.44 9.26Q29.44 7.77 30.44 6.77L30.44 6.77L30.44 6.77Q31.44 5.77 32.93 5.77L32.93 5.77L32.93 5.77Q34.42 5.77 35.42 6.77L35.42 6.77L35.42 6.77Q36.42 7.77 36.42 9.26L36.42 9.26L36.42 9.26Q36.42 10.75 35.42 11.74L35.42 11.74L35.42 11.74Q34.42 12.74 32.93 12.74L32.93 12.74ZM32.92 11.09L32.92 11.09L32.92 11.09Q33.70 11.09 34.19 10.56L34.19 10.56L34.19 10.56Q34.67 10.04 34.67 9.26L34.67 9.26L34.67 9.26Q34.67 8.48 34.19 7.96L34.19 7.96L34.19 7.96Q33.70 7.43 32.92 7.43L32.92 7.43L32.92 7.43Q32.14 7.43 31.66 7.96L31.66 7.96L31.66 7.96Q31.17 8.48 31.17 9.26L31.17 9.26L31.17 9.26Q31.17 10.04 31.66 10.56L31.66 10.56L31.66 10.56Q32.14 11.09 32.92 11.09ZM39.48 5.83L39.48 6.59L39.48 6.59Q40.21 5.84 41.26 5.84L41.26 5.84L41.26 5.84Q41.60 5.84 41.90 5.89L41.90 5.89L41.60 7.78L41.60 7.78Q41.26 7.48 40.64 7.46L40.64 7.46L40.64 7.46Q39.94 7.51 39.48 8.47L39.48 8.47L39.48 12.67L37.56 12.67L37.56 6.04L39.48 5.83ZM42.79 9.26L42.79 9.26L42.79 9.26Q42.79 7.75 43.75 6.79L43.75 6.79L43.75 6.79Q44.71 5.84 46.21 5.84L46.21 5.84L46.21 5.84Q47.71 5.84 48.60 6.79L48.60 6.79L48.60 6.79Q49.49 7.75 49.49 9.26L49.49 9.26L49.49 9.94L44.78 9.94L44.78 9.94Q44.84 10.49 45.25 10.79L45.25 10.79L45.25 10.79Q45.66 11.10 46.21 11.10L46.21 11.10L46.21 11.10Q47.17 11.10 47.92 10.55L47.92 10.55L49.01 11.65L49.01 11.65Q48.26 12.67 46.21 12.67L46.21 12.67L46.21 12.67Q44.71 12.67 43.75 11.72L43.75 11.72L43.75 11.72Q42.79 10.76 42.79 9.26ZM47.58 8.57L47.58 8.57Q47.58 8.03 47.17 7.72L47.17 7.72L47.17 7.72Q46.76 7.41 46.21 7.41L46.21 7.41L46.21 7.41Q45.66 7.41 45.25 7.72L45.25 7.72L45.25 7.72Q44.84 8.03 44.84 8.57L44.84 8.57L47.58 8.57ZM52.71 2.42L50.52 2.42L54.63 12.67L56.68 12.67L60.78 2.42L58.59 2.42L55.62 9.93L52.71 2.42ZM64.24 12.67L62.32 12.67L62.32 5.83L64.24 5.83L64.24 12.67ZM62.25 4.20L62.25 4.20L62.25 4.20Q62.25 4.61 62.53 4.88L62.53 4.88L62.53 4.88Q62.80 5.15 63.28 5.15L63.28 5.15L63.28 5.15Q63.76 5.15 64.03 4.88L64.03 4.88L64.03 4.88Q64.31 4.61 64.31 4.20L64.31 4.20L64.31 4.20Q64.31 3.79 64.03 3.51L64.03 3.51L64.03 3.51Q63.76 3.23 63.27 3.23L63.27 3.23L63.27 3.23Q62.80 3.23 62.53 3.51L62.53 3.51L62.53 3.51Q62.25 3.79 62.25 4.20ZM70.48 2.42L72.39 2.43L72.39 12.67L70.48 12.67L70.48 12.13L70.48 12.13Q69.71 12.67 68.97 12.67L68.97 12.67L68.97 12.67Q67.40 12.67 66.48 11.65L66.48 11.65L66.48 11.65Q65.56 10.62 65.56 9.26L65.56 9.26L65.56 9.26Q65.56 7.89 66.48 6.86L66.48 6.86L66.48 6.86Q67.40 5.84 68.97 5.84L68.97 5.84L68.97 5.84Q70 5.91 70.48 6.39L70.48 6.39L70.48 2.42ZM70.48 9.87L70.48 9.87L70.48 8.76L70.48 8.76Q70.34 7.62 69.04 7.42L69.04 7.42L69.04 7.42Q67.40 7.55 67.20 9.12L67.20 9.12L67.20 9.12Q67.27 11.03 69.04 11.10L69.04 11.10L69.04 11.10Q70.34 10.90 70.48 9.87Z"></path></g><!----><!----></svg>