<svg data-v-423bf9ae="" xmlns="http://www.w3.org/2000/svg" viewBox="0 0 524 97" class="iconLeft"><!----><!----><!----><g data-v-423bf9ae="" id="3ad1d0ed-b019-49d3-bdde-7465be773eb1" fill="white" transform="matrix(4.559270569581267,0,0,4.559270569581267,65.21284966834628,-0.04534069605064417)"><path d="M7.32 14.35L7.32 13.03L2.77 13.03L2.77 10.05L7.15 10.05L7.15 8.74L2.77 8.74L2.77 5.89L7.32 5.89L7.32 4.58L1.20 4.58L1.20 14.35ZM10.70 14.35L11.76 12.80L12.49 11.73L12.57 11.73L13.31 12.80L14.39 14.35L16.18 14.35L13.47 10.63L16.06 7.13L14.41 7.13L13.45 8.50L12.71 9.59L12.63 9.59L11.87 8.50L10.92 7.13L9.14 7.13L11.72 10.68L9.03 14.35ZM17.91 17.15L19.43 17.15L19.43 13.12L19.52 13.12C19.94 13.99 20.64 14.52 21.70 14.52C23.39 14.52 24.49 13.22 24.49 10.74C24.49 8.26 23.39 6.96 21.70 6.96C20.64 6.96 19.94 7.49 19.52 8.36L19.43 8.36L19.43 7.13L17.91 7.13ZM21.07 13.27C20.19 13.27 19.43 12.82 19.43 11.94L19.43 9.53C19.43 8.65 20.19 8.20 21.07 8.20C22.22 8.20 22.88 8.97 22.88 10.15L22.88 11.33C22.88 12.50 22.22 13.27 21.07 13.27ZM26.25 14.35L32.56 14.35L32.56 13.12L30.17 13.12L30.17 3.99L26.25 3.99L26.25 5.22L28.64 5.22L28.64 13.12L26.25 13.12ZM37.80 14.52C39.93 14.52 41.23 13.05 41.23 10.74C41.23 8.43 39.93 6.96 37.80 6.96C35.67 6.96 34.37 8.43 34.37 10.74C34.37 13.05 35.67 14.52 37.80 14.52ZM37.80 13.31C36.69 13.31 35.97 12.63 35.97 11.28L35.97 10.19C35.97 8.85 36.69 8.16 37.80 8.16C38.91 8.16 39.63 8.85 39.63 10.19L39.63 11.28C39.63 12.63 38.91 13.31 37.80 13.31ZM43.06 14.35L49.13 14.35L49.13 13.12L46.51 13.12L46.51 10.42C46.51 9.41 47.17 8.58 48.41 8.58L49.84 8.58L49.84 7.13L48.97 7.13C47.50 7.13 46.87 8.04 46.59 9.04L46.51 9.04L46.51 7.13L43.06 7.13L43.06 8.36L44.98 8.36L44.98 13.12L43.06 13.12ZM54.75 14.52C56.24 14.52 57.25 13.86 57.74 13.02L56.78 12.18C56.38 12.85 55.71 13.29 54.78 13.29C53.54 13.29 52.78 12.49 52.78 11.35L52.78 11.12L57.96 11.12L57.96 10.54C57.96 8.41 56.67 6.96 54.64 6.96C52.58 6.96 51.24 8.43 51.24 10.75C51.24 13.05 52.54 14.52 54.75 14.52ZM54.64 8.12C55.71 8.12 56.41 8.86 56.41 10.00L56.41 10.14L52.78 10.14L52.78 10.04C52.78 8.92 53.55 8.12 54.64 8.12ZM75.25 5.89L75.25 4.58L67.55 4.58L67.55 5.89L70.62 5.89L70.62 14.35L72.18 14.35L72.18 5.89ZM83.43 14.35L83.43 13.15L82.52 13.15L82.52 9.52C82.52 7.87 81.40 6.96 79.58 6.96C78.05 6.96 77.07 7.62 76.66 8.40L77.57 9.14C77.97 8.54 78.51 8.15 79.44 8.15C80.47 8.15 80.99 8.65 80.99 9.62L80.99 10.18L79.60 10.18C77.46 10.18 76.44 10.93 76.44 12.33C76.44 13.69 77.39 14.52 78.86 14.52C80.00 14.52 80.75 14 81.03 13.13L81.10 13.13C81.19 13.86 81.62 14.35 82.49 14.35ZM79.30 13.40C78.48 13.40 77.98 13.06 77.98 12.42L77.98 12.14C77.98 11.49 78.51 11.14 79.63 11.14L80.99 11.14L80.99 12.19C80.99 12.91 80.28 13.40 79.30 13.40ZM85.05 14.35L91.36 14.35L91.36 13.12L88.97 13.12L88.97 3.99L85.05 3.99L85.05 5.22L87.44 5.22L87.44 13.12L85.05 13.12ZM93.63 14.35L95.16 14.35L95.16 11.77L96.17 10.84L98.69 14.35L100.52 14.35L97.27 9.97L100.20 7.13L98.39 7.13L96.36 9.09L95.23 10.25L95.16 10.25L95.16 3.99L93.63 3.99Z"></path></g><!----><g data-v-423bf9ae="" id="c4cf8285-c14a-45b4-ac2c-f383a6f37eca" transform="matrix(1.034366692437066,0,0,1.034366692437066,-25.20115127563477,-3.280421135011423)" stroke="none" fill="white"><path clip-rule="evenodd" d="M73 93.5a3.5 3.5 0 0 1-3.5 3.5h-39a3.5 3.5 0 1 1 0-7h39a3.5 3.5 0 0 1 3.5 3.5zM46 78.316V90h7V78.316c16-1.974 21-15.431 21-22.815V40.114c0-2.123-2.261-3.846-4.5-3.846-2.238 0-4.5 1.723-4.5 3.846v15.387c0 .625.018 15.385-16 15.385-15.607 0-16-13.825-16-15.385V40.114c0-2.123-1.761-3.846-4-3.846s-4 1.723-4 3.846v15.387c0 7.385 5 20.842 21 22.815z"></path><g clip-rule="evenodd"><path d="M63 17v-1.268c0-6.531-5.963-11.825-13.495-11.825C41.967 3.907 36 9.201 36 15.732V17h27zM36 54v1.173C36 61.705 41.971 67 49.5 67 57.042 67 63 61.705 63 55.173V54H36z"></path></g><path clip-rule="evenodd" d="M63 22.5c0 1.381-1.209 2.5-2.7 2.5H38.7c-1.492 0-2.7-1.119-2.7-2.5s1.208-2.5 2.7-2.5h21.6c1.491 0 2.7 1.119 2.7 2.5zM63 31.5c0 1.381-1.209 2.5-2.7 2.5H38.7c-1.492 0-2.7-1.119-2.7-2.5s1.208-2.5 2.7-2.5h21.6c1.491 0 2.7 1.119 2.7 2.5zM63 40.5c0 1.381-1.209 2.5-2.7 2.5H38.7c-1.492 0-2.7-1.119-2.7-2.5s1.208-2.5 2.7-2.5h21.6c1.491 0 2.7 1.119 2.7 2.5zM63 48.5c0 1.381-1.209 2.5-2.7 2.5H38.7c-1.492 0-2.7-1.119-2.7-2.5s1.208-2.5 2.7-2.5h21.6c1.491 0 2.7 1.119 2.7 2.5z"></path><path clip-rule="evenodd" d="M48 11h3v49h-3z"></path></g><!----></svg>