<svg data-v-fde0c5aa="" xmlns="http://www.w3.org/2000/svg" viewBox="0 0 300 300" class="iconLeft"><!----><defs data-v-fde0c5aa=""><!----></defs><rect data-v-fde0c5aa="" fill="#ECE3F7" x="0" y="0" width="300px" height="300px" class="logo-background-square"></rect><defs data-v-fde0c5aa=""><!----></defs><g data-v-fde0c5aa="" id="eb65ca6b-0137-43f8-8f9a-88ceaea55803" fill="#2A1B3C" transform="matrix(3.60710104138171,0,0,3.60710104138171,97.39187780471332,123.86655250798955)"><path d="M0.91 2.80L0.91 12.60L4.34 12.60C5.43 12.60 6.32 12.36 7 11.87C7.68 11.39 8.02 10.65 8.02 9.66C8.02 8.58 7.43 7.80 6.24 7.34C7.06 6.98 7.46 6.36 7.46 5.46C7.46 4.62 7.17 3.97 6.57 3.50C5.98 3.03 5.14 2.80 4.06 2.80ZM2.87 6.58L2.87 4.55L4.06 4.55C5.02 4.55 5.50 4.88 5.50 5.53C5.50 6.23 5.02 6.58 4.06 6.58ZM2.87 8.26L4.34 8.26C4.85 8.26 5.27 8.37 5.59 8.60C5.90 8.82 6.06 9.15 6.06 9.59C6.06 10.43 5.49 10.85 4.34 10.85L2.87 10.85ZM8.86 9.38C8.86 10.44 9.23 11.28 9.96 11.89C10.69 12.50 11.58 12.81 12.61 12.81C13.65 12.81 14.53 12.50 15.27 11.89C16.00 11.28 16.37 10.44 16.37 9.38C16.37 8.32 16.00 7.48 15.27 6.87C14.53 6.26 13.65 5.95 12.61 5.95C11.58 5.95 10.69 6.26 9.96 6.87C9.23 7.48 8.86 8.32 8.86 9.38ZM10.77 9.38C10.77 8.84 10.93 8.40 11.27 8.06C11.61 7.73 12.05 7.56 12.61 7.56C13.17 7.56 13.62 7.73 13.96 8.06C14.29 8.40 14.46 8.84 14.46 9.38C14.46 9.92 14.29 10.36 13.96 10.70C13.62 11.03 13.17 11.20 12.61 11.20C12.05 11.20 11.61 11.03 11.27 10.70C10.93 10.36 10.77 9.92 10.77 9.38ZM21.67 8.15L22.64 6.64C22.29 6.22 21.77 6.01 21.08 6.01C20.45 6.01 19.90 6.35 19.45 7.03L19.45 6.16L17.49 6.16L17.49 12.60L19.45 12.60L19.45 9.02C19.45 8.57 19.54 8.26 19.72 8.09C19.90 7.91 20.19 7.83 20.59 7.83C21.01 7.83 21.37 7.93 21.67 8.15ZM23.13 9.38C23.13 10.50 23.44 11.34 24.05 11.90C24.67 12.46 25.45 12.74 26.39 12.74C27.43 12.74 28.21 12.30 28.73 11.41L28.73 12.60L30.62 12.60L30.62 1.68L28.73 1.68L28.73 7.35C28.21 6.46 27.43 6.02 26.39 6.02C25.45 6.02 24.67 6.30 24.05 6.86C23.44 7.42 23.13 8.26 23.13 9.38ZM25.03 9.38C25.03 8.89 25.21 8.48 25.56 8.17C25.91 7.86 26.35 7.70 26.88 7.70C27.41 7.70 27.85 7.84 28.20 8.11C28.55 8.39 28.73 8.81 28.73 9.38C28.73 9.95 28.55 10.37 28.20 10.65C27.85 10.92 27.41 11.06 26.88 11.06C26.33 11.06 25.88 10.92 25.54 10.63C25.20 10.35 25.03 9.93 25.03 9.38ZM36.82 8.62L33.70 8.62C33.77 8.22 33.97 7.91 34.29 7.69C34.60 7.46 34.96 7.35 35.35 7.35C36.21 7.35 36.70 7.77 36.82 8.62ZM33.68 9.87L38.78 9.87C38.80 9.69 38.81 9.49 38.81 9.25C38.81 8.25 38.50 7.44 37.87 6.85C37.24 6.25 36.40 5.95 35.35 5.95C34.28 5.95 33.41 6.27 32.74 6.92C32.07 7.57 31.74 8.39 31.74 9.38C31.74 10.38 32.06 11.19 32.70 11.81C33.34 12.43 34.22 12.74 35.35 12.74C36.98 12.74 38.11 12.10 38.72 10.82L36.93 10.42C36.64 10.99 36.12 11.27 35.35 11.27C34.40 11.27 33.84 10.80 33.68 9.87ZM44.11 8.15L45.08 6.64C44.73 6.22 44.22 6.01 43.53 6.01C42.89 6.01 42.35 6.35 41.89 7.03L41.89 6.16L39.93 6.16L39.93 12.60L41.89 12.60L41.89 9.02C41.89 8.57 41.98 8.26 42.16 8.09C42.34 7.91 42.63 7.83 43.04 7.83C43.46 7.83 43.82 7.93 44.11 8.15Z"></path></g><defs data-v-fde0c5aa=""><linearGradient data-v-fde0c5aa="" gradientTransform="rotate(25)" id="08139f6c-cbc6-45e8-a493-412a63ccb299" x1="0%" y1="0%" x2="100%" y2="0%"><stop data-v-fde0c5aa="" offset="0%" stop-color="#3616AC" stop-opacity="1"></stop><stop data-v-fde0c5aa="" offset="100%" stop-color="#E09BED" stop-opacity="1"></stop></linearGradient></defs><g data-v-fde0c5aa="" id="efe1a63a-9827-41a4-9eb0-450db85bedbd" stroke="none" fill="url(#08139f6c-cbc6-45e8-a493-412a63ccb299)" transform="matrix(1.2545853718342872,0,0,1.2545853718342872,33.72613630807047,119.89042330996145)"><g color="#000" font-weight="400" font-family="sans-serif" white-space="normal"><path style="line-height:normal;text-indent:0;text-align:start;text-decoration-line:none;text-decoration-style:solid;text-decoration-color:#000;text-transform:none;block-progression:tb;isolation:auto;mix-blend-mode:normal" d="M19.99 11c-3.036 0-5.598 2.31-5.599 5.236 0 .401.144.783.24 1.172-1.528.948-2.63 2.438-2.632 4.225.001.906.318 1.758.785 2.534-.466.774-.783 1.626-.785 2.53.002 1.748 1.06 3.221 2.539 4.178-.055.296-.147.587-.147.888 0 2.926 2.562 5.233 5.6 5.234 1.422 0 2.694-.616 3.726-1.518 1.032.901 2.304 1.516 3.725 1.518 3.037 0 5.599-2.308 5.599-5.234 0-.166-.053-.326-.07-.492 1.791-.884 3.024-2.593 3.027-4.573-.002-.904-.32-1.757-.787-2.531.467-.775.785-1.627.787-2.532 0-2.012-1.27-3.738-3.101-4.61.044-.264.143-.518.144-.785 0-2.926-2.562-5.235-5.6-5.236-1.421 0-2.693.618-3.726 1.52-1.032-.902-2.303-1.518-3.724-1.52zm-.001 2h.002c1.18 0 2.276.533 2.937 1.378a1 1 0 0 0 1.574 0c.661-.845 1.758-1.376 2.94-1.377 2.041 0 3.598 1.482 3.6 3.233a2.935 2.935 0 0 1-.188 1.016 1 1 0 0 0 .656 1.31c1.522.445 2.487 1.698 2.488 3.073a3.009 3.009 0 0 1-.697 1.903 1 1 0 0 0 0 1.264c.456.56.695 1.223.697 1.902-.003 1.348-.93 2.58-2.408 3.047a1 1 0 0 0-.662 1.227c.074.26.113.53.113.797-.002 1.75-1.558 3.23-3.597 3.231-1.182 0-2.279-.53-2.94-1.375a1 1 0 0 0-1.574 0c-.661.845-1.757 1.373-2.94 1.375-2.041 0-3.599-1.483-3.599-3.235 0-.317.051-.632.155-.937a1 1 0 0 0-.541-1.235c-1.257-.558-2.003-1.685-2.006-2.893a3.01 3.01 0 0 1 .695-1.9 1 1 0 0 0 0-1.264A3.008 3.008 0 0 1 14 21.637c.003-1.238.787-2.389 2.092-2.93a1 1 0 0 0 .537-1.315 2.938 2.938 0 0 1-.237-1.152c0-1.751 1.557-3.234 3.598-3.235z" overflow="visible"></path><path style="line-height:normal;text-indent:0;text-align:start;text-decoration-line:none;text-decoration-style:solid;text-decoration-color:#000;text-transform:none;block-progression:tb;isolation:auto;mix-blend-mode:normal" d="M24.03 18.004a1 1 0 0 0-.973.677l-2 5.614a1 1 0 0 0 1.274 1.28l2.042-.717-1.32 3.805a1 1 0 1 0 1.89.655l2-5.76a1 1 0 0 0-1.277-1.275l-2.023.712 1.297-3.644a1 1 0 0 0-.91-1.347zM24.036 0a1 1 0 0 0-1.006.767l-1 3.926a1 1 0 0 0 1.408 1.145l.072-.035-.482 1.943a1 1 0 1 0 1.941.483l1-4.03a1 1 0 0 0-1.412-1.139l-.055.027.465-1.826A1 1 0 0 0 24.036 0zM5.978 5.002a1 1 0 0 0-.502 1.851L7.15 7.914a1 1 0 0 0-.144 1.772l3.449 2.157a1 1 0 1 0 1.06-1.698l-1.583-.99a1 1 0 0 0 .136-1.762l-3.523-2.23a1 1 0 0 0-.568-.161zM10.991 36.004a1 1 0 0 0-.539.165l-3.523 2.228a1 1 0 0 0 .136 1.762l-1.583.99a1 1 0 1 0 1.06 1.698l3.45-2.156a1 1 0 0 0-.145-1.772l1.675-1.06a1 1 0 0 0-.53-1.855zM24.036 39.007a1 1 0 0 0-1.006.765l-1 3.927a1 1 0 0 0 1.408 1.144l.072-.035-.482 1.944a1 1 0 1 0 1.941.482l1-4.03a1 1 0 0 0-1.412-1.138l-.055.027.465-1.826a1 1 0 0 0-.931-1.26zM41.99 5a1 1 0 0 0-.54.164l-3.522 2.229a1 1 0 0 0 .136 1.762l-1.584.99a1 1 0 1 0 1.06 1.698l3.45-2.157a1 1 0 0 0-.145-1.772l1.676-1.06A1 1 0 0 0 41.99 5zM36.976 36.006a1 1 0 0 0-.501 1.852l1.675 1.06a1 1 0 0 0-.144 1.773l3.449 2.156a1 1 0 0 0 1.06-1.697l-1.584-.99a1 1 0 0 0 .137-1.763l-3.523-2.229a1 1 0 0 0-.569-.162z" overflow="visible"></path></g></g><!----></svg>