<svg data-v-423bf9ae="" xmlns="http://www.w3.org/2000/svg" viewBox="0 0 238.1132157923324 60" class="font"><!----><!----><!----><g data-v-423bf9ae="" id="e4a5f0b0-c8d0-43bc-899e-74620c156ad1" fill="white" transform="matrix(5.39083552408516,0,0,5.39083552408516,-4.905659985576804,-9.056604755595906)"><path d="M0.91 2.80L0.91 12.60L4.34 12.60C5.43 12.60 6.32 12.36 7 11.87C7.68 11.39 8.02 10.65 8.02 9.66C8.02 8.58 7.43 7.80 6.24 7.34C7.06 6.98 7.46 6.36 7.46 5.46C7.46 4.62 7.17 3.97 6.57 3.50C5.98 3.03 5.14 2.80 4.06 2.80ZM2.87 6.58L2.87 4.55L4.06 4.55C5.02 4.55 5.50 4.88 5.50 5.53C5.50 6.23 5.02 6.58 4.06 6.58ZM2.87 8.26L4.34 8.26C4.85 8.26 5.27 8.37 5.59 8.60C5.90 8.82 6.06 9.15 6.06 9.59C6.06 10.43 5.49 10.85 4.34 10.85L2.87 10.85ZM8.86 9.38C8.86 10.44 9.23 11.28 9.96 11.89C10.69 12.50 11.58 12.81 12.61 12.81C13.65 12.81 14.53 12.50 15.27 11.89C16.00 11.28 16.37 10.44 16.37 9.38C16.37 8.32 16.00 7.48 15.27 6.87C14.53 6.26 13.65 5.95 12.61 5.95C11.58 5.95 10.69 6.26 9.96 6.87C9.23 7.48 8.86 8.32 8.86 9.38ZM10.77 9.38C10.77 8.84 10.93 8.40 11.27 8.06C11.61 7.73 12.05 7.56 12.61 7.56C13.17 7.56 13.62 7.73 13.96 8.06C14.29 8.40 14.46 8.84 14.46 9.38C14.46 9.92 14.29 10.36 13.96 10.70C13.62 11.03 13.17 11.20 12.61 11.20C12.05 11.20 11.61 11.03 11.27 10.70C10.93 10.36 10.77 9.92 10.77 9.38ZM21.67 8.15L22.64 6.64C22.29 6.22 21.77 6.01 21.08 6.01C20.45 6.01 19.90 6.35 19.45 7.03L19.45 6.16L17.49 6.16L17.49 12.60L19.45 12.60L19.45 9.02C19.45 8.57 19.54 8.26 19.72 8.09C19.90 7.91 20.19 7.83 20.59 7.83C21.01 7.83 21.37 7.93 21.67 8.15ZM23.13 9.38C23.13 10.50 23.44 11.34 24.05 11.90C24.67 12.46 25.45 12.74 26.39 12.74C27.43 12.74 28.21 12.30 28.73 11.41L28.73 12.60L30.62 12.60L30.62 1.68L28.73 1.68L28.73 7.35C28.21 6.46 27.43 6.02 26.39 6.02C25.45 6.02 24.67 6.30 24.05 6.86C23.44 7.42 23.13 8.26 23.13 9.38ZM25.03 9.38C25.03 8.89 25.21 8.48 25.56 8.17C25.91 7.86 26.35 7.70 26.88 7.70C27.41 7.70 27.85 7.84 28.20 8.11C28.55 8.39 28.73 8.81 28.73 9.38C28.73 9.95 28.55 10.37 28.20 10.65C27.85 10.92 27.41 11.06 26.88 11.06C26.33 11.06 25.88 10.92 25.54 10.63C25.20 10.35 25.03 9.93 25.03 9.38ZM36.82 8.62L33.70 8.62C33.77 8.22 33.97 7.91 34.29 7.69C34.60 7.46 34.96 7.35 35.35 7.35C36.21 7.35 36.70 7.77 36.82 8.62ZM33.68 9.87L38.78 9.87C38.80 9.69 38.81 9.49 38.81 9.25C38.81 8.25 38.50 7.44 37.87 6.85C37.24 6.25 36.40 5.95 35.35 5.95C34.28 5.95 33.41 6.27 32.74 6.92C32.07 7.57 31.74 8.39 31.74 9.38C31.74 10.38 32.06 11.19 32.70 11.81C33.34 12.43 34.22 12.74 35.35 12.74C36.98 12.74 38.11 12.10 38.72 10.82L36.93 10.42C36.64 10.99 36.12 11.27 35.35 11.27C34.40 11.27 33.84 10.80 33.68 9.87ZM44.11 8.15L45.08 6.64C44.73 6.22 44.22 6.01 43.53 6.01C42.89 6.01 42.35 6.35 41.89 7.03L41.89 6.16L39.93 6.16L39.93 12.60L41.89 12.60L41.89 9.02C41.89 8.57 41.98 8.26 42.16 8.09C42.34 7.91 42.63 7.83 43.04 7.83C43.46 7.83 43.82 7.93 44.11 8.15Z"></path></g><!----><!----></svg>